<svg width="140" height="30" viewBox="0 0 140 30" fill="none" xmlns="http://www.w3.org/2000/svg">
<mask id="mask0_401_1244" style="mask-type:alpha" maskUnits="userSpaceOnUse" x="0" y="0" width="28" height="30">
<path d="M8.89428 26.3647C8.89428 28.366 7.27197 29.9883 5.27075 29.9883C3.26953 29.9883 1.64722 28.366 1.64722 26.3647C1.64722 24.3635 3.26953 22.7412 5.27075 22.7412C7.27197 22.7412 8.89428 24.3635 8.89428 26.3647Z" fill="#C4C4C4"/>
<path d="M26.3533 26.3647C26.3533 28.366 24.731 29.9883 22.7297 29.9883C20.7285 29.9883 19.1062 28.366 19.1062 26.3647C19.1062 24.3635 20.7285 22.7412 22.7297 22.7412C24.731 22.7412 26.3533 24.3635 26.3533 26.3647Z" fill="#C4C4C4"/>
<path fill-rule="evenodd" clip-rule="evenodd" d="M25.1913 23.7058C25.4382 23.9345 25.4094 24.3209 25.1508 24.5363C23.7802 25.6779 22.0174 26.3647 20.0941 26.3647H19.7649C19.401 26.3647 19.0998 26.0671 19.1652 25.7091C19.4737 24.0209 20.9522 22.7412 22.7296 22.7412C23.68 22.7412 24.545 23.1071 25.1913 23.7058ZM27.0987 22.1282C26.8986 22.5093 26.3844 22.543 26.0504 22.2717C25.144 21.5354 23.9883 21.0942 22.7296 21.0942C20.0414 21.0942 17.8233 23.1066 17.4996 25.7072C17.4547 26.0682 17.164 26.3647 16.8002 26.3647H11.2C10.8361 26.3647 10.5455 26.0682 10.5006 25.7072C10.1769 23.1066 7.95876 21.0942 5.27059 21.0942C4.0118 21.0942 2.85608 21.5354 1.94969 22.2718C1.61563 22.5431 1.10145 22.5094 0.901402 22.1283C0.325709 21.0317 0 19.7833 0 18.4588V16.8116C0 16.4478 0.294965 16.1528 0.658823 16.1528H27.3412C27.705 16.1528 28 16.4478 28 16.8116V18.4588C28 19.7832 27.6743 21.0316 27.0987 22.1282ZM28 13.8469C28 14.2108 27.705 14.5057 27.3412 14.5057H0.658824C0.294965 14.5057 0 14.2108 0 13.8469V9.89402C0 9.53016 0.294965 9.2352 0.658823 9.2352H27.3412C27.705 9.2352 28 9.53016 28 9.89402V13.8469ZM7.90588 0.0117188C3.883 0.0117188 0.561907 3.0164 0.0643695 6.904C0.0168356 7.27541 0.318678 7.58814 0.693122 7.58814H27.3069C27.6813 7.58814 27.9832 7.27541 27.9356 6.904C27.4381 3.0164 24.117 0.0117188 20.0941 0.0117188H7.90588ZM5.27059 22.7412C7.04795 22.7412 8.52644 24.0209 8.83496 25.7091C8.90037 26.0671 8.59914 26.3647 8.23528 26.3647H7.90588C5.98268 26.3647 4.21987 25.6779 2.84928 24.5364C2.59074 24.321 2.56193 23.9345 2.80878 23.7059C3.45509 23.1072 4.3201 22.7412 5.27059 22.7412Z" fill="#C4C4C4"/>
</mask>
<g mask="url(#mask0_401_1244)">
<rect x="-1.64722" y="-2.29395" width="33.6" height="10.8706" fill="url(#paint0_linear_401_1244)"/>
<rect x="-1.64722" y="15.4941" width="33.6" height="16.4706" fill="#FFA833"/>
<rect x="-1.64722" y="8.57666" width="33.6" height="7.24706" rx="3.62353" fill="#F17228"/>
<rect x="-23.0586" y="22.7412" width="31.9529" height="7.24706" fill="#F58D00"/>
<rect x="19.1062" y="22.7412" width="31.9529" height="7.24706" fill="#F58D00"/>
<ellipse cx="8.11249" cy="2.82316" rx="1" ry="0.5" transform="rotate(-20.8548 8.11249 2.82316)" fill="white"/>
<ellipse cx="14" cy="2.5" rx="1" ry="0.5" fill="white"/>
<ellipse cx="19.1176" cy="2.91225" rx="1" ry="0.5" transform="rotate(28.1155 19.1176 2.91225)" fill="white"/>
</g>
<path d="M67.1079 29.1867C66.6517 29.1867 66.2472 29.1556 65.8947 29.0934C65.5628 29.0312 65.2413 28.9586 64.9302 28.8756L65.7391 25.3913C65.8843 25.412 66.0502 25.4431 66.2369 25.4846C66.4235 25.5468 66.5998 25.578 66.7657 25.578C67.5331 25.578 68.1242 25.3913 68.539 25.018C68.9538 24.6446 69.2649 24.1573 69.4723 23.5558L69.6901 22.7469L63.748 7.7207H68.3524L70.5612 14.3472C70.7893 15.0523 70.9967 15.7679 71.1834 16.4938C71.37 17.2197 71.5671 17.9663 71.7745 18.7337H71.8989C72.0648 18.0078 72.2308 17.2819 72.3967 16.556C72.5833 15.8094 72.77 15.0731 72.9567 14.3472L74.8233 7.7207H79.2098L73.8589 23.3069C73.3818 24.5928 72.853 25.6713 72.2722 26.5424C71.6915 27.4342 70.9864 28.0979 70.1567 28.5334C69.3479 28.969 68.3316 29.1867 67.1079 29.1867Z" fill="#F17228"/>
<path d="M39.5 23.1511V7.72049H43.2332L43.5443 9.71154H43.6688C44.3117 9.0686 44.9961 8.51899 45.722 8.0627C46.4479 7.58568 47.319 7.34717 48.3353 7.34717C49.4345 7.34717 50.316 7.57531 50.9797 8.03159C51.6641 8.46713 52.2033 9.09971 52.5974 9.92931C53.2818 9.22415 54.0077 8.62269 54.7751 8.12492C55.5425 7.60642 56.4343 7.34717 57.4506 7.34717C59.1098 7.34717 60.3231 7.90715 61.0905 9.02712C61.8786 10.1263 62.2727 11.6404 62.2727 13.5692V23.1511H57.6995V14.1603C57.6995 13.0403 57.5439 12.2729 57.2328 11.8581C56.9425 11.4433 56.4654 11.2359 55.8017 11.2359C55.0344 11.2359 54.1529 11.7337 53.1574 12.7292V23.1511H48.5842V14.1603C48.5842 13.0403 48.4286 12.2729 48.1175 11.8581C47.8272 11.4433 47.3501 11.2359 46.6865 11.2359C45.9191 11.2359 45.048 11.7337 44.0732 12.7292V23.1511H39.5Z" fill="#F17228"/>
<path d="M130.841 29.1866C129.638 29.1866 128.549 29.0518 127.575 28.7822C126.6 28.5125 125.822 28.0874 125.241 27.5066C124.661 26.9259 124.37 26.1793 124.37 25.2667C124.37 24.0223 125.107 22.9853 126.579 22.1557V22.0312C126.185 21.7616 125.843 21.4194 125.553 21.0046C125.283 20.5898 125.148 20.0609 125.148 19.418C125.148 18.858 125.314 18.3188 125.646 17.8003C125.978 17.2818 126.393 16.8566 126.89 16.5247V16.4003C126.351 16.027 125.864 15.4877 125.428 14.7826C125.013 14.0774 124.806 13.2789 124.806 12.3871C124.806 11.1427 125.107 10.116 125.708 9.30717C126.31 8.47757 127.098 7.85537 128.072 7.44056C129.047 7.02576 130.084 6.81836 131.183 6.81836C132.096 6.81836 132.895 6.9428 133.579 7.19168H139.21V10.5205H136.752C136.897 10.7486 137.011 11.039 137.094 11.3916C137.198 11.7441 137.25 12.1278 137.25 12.5426C137.25 13.7248 136.98 14.6996 136.441 15.467C135.902 16.2344 135.176 16.8047 134.263 17.1781C133.351 17.5514 132.324 17.738 131.183 17.738C130.582 17.738 129.96 17.6343 129.317 17.4269C128.944 17.738 128.757 18.1217 128.757 18.578C128.757 18.9721 128.933 19.2624 129.286 19.4491C129.638 19.6358 130.24 19.7291 131.09 19.7291H133.579C135.487 19.7291 136.939 20.0402 137.934 20.6624C138.951 21.2639 139.459 22.2594 139.459 23.649C139.459 24.7067 139.106 25.6504 138.401 26.48C137.696 27.3303 136.7 27.994 135.414 28.4711C134.129 28.9481 132.604 29.1866 130.841 29.1866ZM131.183 14.9692C131.785 14.9692 132.283 14.7515 132.677 14.3159C133.092 13.8804 133.299 13.2374 133.299 12.3871C133.299 11.5782 133.092 10.9664 132.677 10.5516C132.283 10.116 131.785 9.89827 131.183 9.89827C130.582 9.89827 130.074 10.1057 129.659 10.5205C129.265 10.9353 129.068 11.5575 129.068 12.3871C129.068 13.2374 129.265 13.8804 129.659 14.3159C130.074 14.7515 130.582 14.9692 131.183 14.9692ZM131.557 26.3245C132.594 26.3245 133.444 26.1378 134.108 25.7645C134.772 25.3911 135.103 24.9452 135.103 24.4267C135.103 23.9497 134.896 23.6282 134.481 23.4623C134.087 23.2964 133.506 23.2134 132.739 23.2134H131.152C130.634 23.2134 130.198 23.1927 129.846 23.1512C129.514 23.1305 129.224 23.089 128.975 23.0268C128.415 23.5245 128.135 24.0327 128.135 24.5512C128.135 25.1319 128.446 25.5674 129.068 25.8578C129.711 26.1689 130.541 26.3245 131.557 26.3245Z" fill="#FFB30E"/>
<path d="M115.327 22.9957C114.02 22.9957 112.786 22.6846 111.625 22.0624C110.484 21.4194 109.561 20.4965 108.856 19.2935C108.151 18.0699 107.798 16.6077 107.798 14.907C107.798 13.1856 108.151 11.7234 108.856 10.5205C109.561 9.31755 110.484 8.40498 111.625 7.78278C112.786 7.13983 114.02 6.81836 115.327 6.81836C116.634 6.81836 117.857 7.13983 118.998 7.78278C120.139 8.40498 121.062 9.31755 121.767 10.5205C122.472 11.7234 122.825 13.1856 122.825 14.907C122.825 16.6077 122.472 18.0699 121.767 19.2935C121.062 20.4965 120.139 21.4194 118.998 22.0624C117.857 22.6846 116.634 22.9957 115.327 22.9957ZM115.327 19.2935C116.26 19.2935 116.965 18.8995 117.443 18.1114C117.92 17.3025 118.158 16.2344 118.158 14.907C118.158 13.5589 117.92 12.4908 117.443 11.7027C116.965 10.9145 116.26 10.5205 115.327 10.5205C114.373 10.5205 113.657 10.9145 113.18 11.7027C112.724 12.4908 112.496 13.5589 112.496 14.907C112.496 16.2344 112.724 17.3025 113.18 18.1114C113.657 18.8995 114.373 19.2935 115.327 19.2935Z" fill="#FFB30E"/>
<path d="M104.621 22.9955C103.045 22.9955 101.946 22.5289 101.323 21.5956C100.722 20.6415 100.421 19.3868 100.421 17.8312V0.813965H104.994V18.0179C104.994 18.4949 105.077 18.8268 105.243 19.0134C105.43 19.2001 105.617 19.2934 105.803 19.2934C105.907 19.2934 105.99 19.2934 106.052 19.2934C106.135 19.2727 106.239 19.2519 106.363 19.2312L106.923 22.6222C106.674 22.7259 106.353 22.8089 105.959 22.8711C105.585 22.9541 105.14 22.9955 104.621 22.9955Z" fill="#FFB30E"/>
<path d="M91.2984 22.9955C90.6139 22.9955 89.9191 22.8296 89.214 22.4978C88.5296 22.1452 87.8866 21.6371 87.2852 20.9734H87.1607L86.7874 22.6222H83.2097V0.813965H87.7829V6.16492L87.6585 8.52929C88.2599 7.99005 88.9133 7.57525 89.6184 7.28489C90.3236 6.97378 91.0287 6.81823 91.7339 6.81823C92.9783 6.81823 94.0568 7.13971 94.9694 7.78265C95.8819 8.42559 96.5767 9.33816 97.0538 10.5203C97.5515 11.6818 97.8004 13.0506 97.8004 14.6269C97.8004 16.3898 97.4893 17.9038 96.8671 19.169C96.2449 20.4134 95.436 21.3674 94.4405 22.0311C93.4657 22.6741 92.4183 22.9955 91.2984 22.9955ZM90.2406 19.2623C91.0287 19.2623 91.7028 18.8994 92.2628 18.1735C92.8228 17.4476 93.1028 16.2965 93.1028 14.7202C93.1028 11.941 92.2109 10.5515 90.4273 10.5515C89.5147 10.5515 88.6333 11.0181 87.7829 11.9514V18.2668C88.1977 18.6401 88.6125 18.8994 89.0273 19.0445C89.4421 19.1897 89.8466 19.2623 90.2406 19.2623Z" fill="#FFB30E"/>
<defs>
<linearGradient id="paint0_linear_401_1244" x1="14.9999" y1="-0.5" x2="14.9999" y2="17" gradientUnits="userSpaceOnUse">
<stop stop-color="#FFD16D"/>
<stop offset="1" stop-color="#FF7A00"/>
</linearGradient>
</defs>
</svg>
